<svg xmlns="http://www.w3.org/2000/svg" width="111" height="111" fill="none"><circle cx="55.5" cy="55.5" r="55.5" fill="#03201F" fill-opacity=".5"/><circle cx="55.5" cy="55.5" r="41.5" fill="#041C1A"/><path fill="#95AEAE" d="M55.72 38C50.352 38 46 42.396 46 47.82v16.36C46 69.6 50.352 74 55.72 74s9.72-4.396 9.72-9.82V47.816C65.444 42.396 61.088 38 55.72 38Zm8.423 26.176c0 4.69-3.775 8.506-8.423 8.506s-8.419-3.816-8.419-8.506V47.817c0-4.69 3.775-8.507 8.423-8.507s8.422 3.82 8.422 8.507l-.003 16.359Zm-5.885 3.348c0 1.414-1.137 2.563-2.538 2.563-1.4 0-2.538-1.149-2.538-2.563 0-1.415 1.137-2.564 2.538-2.564 1.4 0 2.538 1.145 2.538 2.564Zm-.702-4.907a1.844 1.844 0 0 1-1.836 1.854 1.845 1.845 0 0 1-1.836-1.854c0-1.023.824-1.854 1.836-1.854a1.838 1.838 0 0 1 1.836 1.854Zm-.514-3.669c0 .738-.591 1.336-1.322 1.336a1.326 1.326 0 0 1-1.322-1.336c0-.741.591-1.335 1.322-1.335.73.003 1.322.605 1.322 1.335Z"/></svg>